<svg style="width: 30px;margin-bottom: -10px;fill: #ffffff;" viewBox="0 0 30 30" xmlns="http://www.w3.org/2000/svg" class="HeaderButtons__iconSvg"><path fill-rule="evenodd" d="M22.686 17.65c0-.75-.54-1.41-1.35-1.41s-1.35.66-1.35 1.41c0 .78.54 1.38 1.35 1.38s1.35-.6 1.35-1.38m-13.68 0c0-.75-.54-1.41-1.35-1.41s-1.35.66-1.35 1.41c0 .78.54 1.38 1.35 1.38s1.35-.6 1.35-1.38m1.23-.15h8.52c.09-1.41 1.26-2.49 2.58-2.49 1.38 0 2.58 1.17 2.58 2.49h1.05v-.21c0-.51-.09-1.11-.239-1.53l-.15-.42c-.24-.63-.63-.96-1.65-1.2l-1.5-.33c-.45-.09-.93-.3-1.29-.51-.69-.42-1.56-1.05-3.151-1.56-1.2-.39-3.63-.48-5.76-.48-1.29 0-2.76.09-4.14.18l-1.5-.81v-.36c1.2-.09 4.23-.27 5.97-.27 1.95 0 4.65.12 5.97.57 1.56.54 2.55 1.26 3.12 1.56.24.12.54.3.9.39l1.5.36c.99.24 1.771.51 2.191 1.05.6.78 1.02 2.07 1.02 2.91 0 1.47-.42 1.92-1.53 1.92h-1.02c-.45 1.02-1.47 1.531-2.37 1.531-.9 0-1.92-.51-2.37-1.53h-8.941c-.45 1.02-1.47 1.53-2.37 1.53-1.02 0-2.19-.66-2.49-1.95-1.38-.06-2.04-.51-2.04-2.16V13.6c.51-.72 1.23-1.5 1.98-2.22l1.14.63c-.69.66-1.29 1.26-1.89 2.01v2.25c0 .63.24.78.78.78.27-1.17 1.35-2.04 2.52-2.04 1.38 0 2.58 1.17 2.58 2.49"></path></svg>