<svg xmlns="http://www.w3.org/2000/svg" style="fill: #ffffff;" viewBox="0 0 48 48" class="HeaderButtons__iconSvg">
                  <path d="M36.049 38.278c0-1.445-.951-2.43-2.344-2.43-1.398 0-2.349.985-2.349 2.43 0 1.444.951 2.43 2.349 2.43 1.393 0 2.344-.986 2.344-2.43m2.156 0c0 2.56-1.966 4.596-4.5 4.596-2.54 0-4.503-2.035-4.503-4.596s1.964-4.597 4.503-4.597c2.534 0 4.5 2.036 4.5 4.597m-15.664 0c0-1.445-.95-2.43-2.346-2.43-1.393 0-2.344.985-2.344 2.43 0 1.444.951 2.43 2.344 2.43 1.395 0 2.346-.986 2.346-2.43m2.157 0c0 2.56-1.966 4.596-4.503 4.596-2.534 0-4.502-2.035-4.502-4.596s1.968-4.597 4.502-4.597c2.537 0 4.503 2.036 4.503 4.597m-6.72-10.835h21.495l2.539-14.12H15.568l-.19-2.231H44.8l-3.424 18.583H17.912c-3.741 0-5.263-1.379-5.705-5.124L10.305 8.465c-.19-1.576-.952-2.232-2.54-2.232H3.2V4h4.566c3.36 0 4.566 1.114 4.946 4.465l1.776 16.154c.19 1.97 1.27 2.824 3.49 2.824">
                  </path>
                </svg>