<?xml version="1.0" encoding="utf-8"?>
<!-- Generator: Adobe Illustrator 24.0.0, SVG Export Plug-In . SVG Version: 6.00 Build 0)  -->
<svg version="1.1" id="Layer_1" xmlns="http://www.w3.org/2000/svg" xmlns:xlink="http://www.w3.org/1999/xlink" x="0px" y="0px"
	 viewBox="0 0 30 30" style="enable-background:new 0 0 30 30;" xml:space="preserve">
<style type="text/css">
	.st0{fill:#1F2532;}
	.st1{fill-rule:evenodd;clip-rule:evenodd;fill:#FFFFFF;}
</style>
<g>
	<circle class="st0" cx="15" cy="15" r="14.95"/>
</g>
<g>
	<path class="st1" d="M7.95,8.72l2.34,0.32c0.32,0.11,0.69,0.27,0.85,0.64l0.43,1.22h10.97c0.37,0,0.53,0.48,0.43,0.8l-1.86,4.69
		c-0.11,0.32-0.27,0.64-0.64,0.64l-7.99-0.05l0.11,0.75h6.98c1.01,0,1.06,1.33,0.27,1.6c0.27,0.21,0.43,0.48,0.43,0.85
		c0,0.64-0.53,1.12-1.12,1.12c-0.64,0-1.12-0.48-1.12-1.12c0-0.32,0.16-0.64,0.37-0.85h-5.16c0.21,0.21,0.37,0.53,0.37,0.85
		c0,0.64-0.53,1.12-1.12,1.12c-0.64,0-1.12-0.48-1.12-1.12c0-0.32,0.11-0.64,0.37-0.85c-0.59-0.11-0.69-0.8-0.75-1.33l-1.01-6.66
		c-0.11-0.53-0.05-0.75-0.59-0.8l-1.7-0.32C6.62,10.05,6.88,8.56,7.95,8.72z"/>
</g>
</svg>
